<svg width="300" height="24" viewBox="0 0 300 24" fill="none" xmlns="http://www.w3.org/2000/svg">
<path d="M-0.00218749 22.8477V0.447655H10.2378C12.2858 0.447655 14.0458 0.778322 15.5178 1.43966C17.0111 2.10099 18.1631 3.06099 18.9738 4.31965C19.7845 5.55699 20.1898 7.02899 20.1898 8.73566C20.1898 10.421 19.7845 11.8823 18.9738 13.1197C18.1631 14.3357 17.0111 15.2743 15.5178 15.9357C14.0458 16.5757 12.2858 16.8957 10.2378 16.8957H3.51781L6.33381 14.2397V22.8477H-0.00218749ZM13.8538 22.8477L8.28581 14.6877H15.0378L20.6378 22.8477H13.8538ZM6.33381 14.9117L3.51781 11.9997H9.85381C11.1765 11.9997 12.1578 11.7117 12.7978 11.1357C13.4591 10.5597 13.7898 9.75966 13.7898 8.73566C13.7898 7.69032 13.4591 6.87966 12.7978 6.30366C12.1578 5.72766 11.1765 5.43966 9.85381 5.43966H3.51781L6.33381 2.52765V14.9117ZM34.9813 23.2957C33.1893 23.2957 31.536 23.0077 30.0213 22.4317C28.5066 21.8557 27.184 21.045 26.0533 19.9997C24.944 18.933 24.08 17.6957 23.4613 16.2877C22.8426 14.8797 22.5333 13.333 22.5333 11.6477C22.5333 9.96232 22.8426 8.41566 23.4613 7.00766C24.08 5.59965 24.944 4.37299 26.0533 3.32766C27.184 2.26099 28.5066 1.43966 30.0213 0.863655C31.536 0.287655 33.1893 -0.00034523 34.9813 -0.00034523C36.7946 -0.00034523 38.448 0.287655 39.9413 0.863655C41.456 1.43966 42.768 2.26099 43.8773 3.32766C44.9866 4.37299 45.8506 5.59965 46.4693 7.00766C47.1093 8.41566 47.4293 9.96232 47.4293 11.6477C47.4293 13.333 47.1093 14.8903 46.4693 16.3197C45.8506 17.7277 44.9866 18.9543 43.8773 19.9997C42.768 21.045 41.456 21.8557 39.9413 22.4317C38.448 23.0077 36.7946 23.2957 34.9813 23.2957ZM34.9813 18.0477C35.8346 18.0477 36.624 17.8983 37.3493 17.5997C38.096 17.301 38.736 16.8743 39.2693 16.3197C39.824 15.7437 40.2506 15.061 40.5493 14.2717C40.8693 13.4823 41.0293 12.6077 41.0293 11.6477C41.0293 10.6663 40.8693 9.79166 40.5493 9.02366C40.2506 8.23432 39.824 7.56232 39.2693 7.00766C38.736 6.43166 38.096 5.99432 37.3493 5.69566C36.624 5.39699 35.8346 5.24766 34.9813 5.24766C34.128 5.24766 33.328 5.39699 32.5813 5.69566C31.856 5.99432 31.216 6.43166 30.6613 7.00766C30.128 7.56232 29.7013 8.23432 29.3813 9.02366C29.0826 9.79166 28.9333 10.6663 28.9333 11.6477C28.9333 12.6077 29.0826 13.4823 29.3813 14.2717C29.7013 15.061 30.128 15.7437 30.6613 16.3197C31.216 16.8743 31.856 17.301 32.5813 17.5997C33.328 17.8983 34.128 18.0477 34.9813 18.0477ZM58.6198 23.2957C56.7851 23.2957 55.0145 23.0717 53.3078 22.6237C51.6225 22.1543 50.2465 21.557 49.1798 20.8317L51.2598 16.1597C52.2625 16.7997 53.4145 17.333 54.7158 17.7597C56.0385 18.165 57.3505 18.3677 58.6518 18.3677C59.5265 18.3677 60.2305 18.293 60.7638 18.1437C61.2971 17.973 61.6811 17.7597 61.9158 17.5037C62.1718 17.2263 62.2998 16.9063 62.2998 16.5437C62.2998 16.0317 62.0651 15.6263 61.5958 15.3277C61.1265 15.029 60.5185 14.7837 59.7718 14.5917C59.0251 14.3997 58.1931 14.2077 57.2758 14.0157C56.3798 13.8237 55.4731 13.5783 54.5558 13.2797C53.6598 12.981 52.8385 12.597 52.0918 12.1277C51.3451 11.637 50.7371 11.0077 50.2678 10.2397C49.7985 9.45032 49.5638 8.45832 49.5638 7.26366C49.5638 5.91966 49.9265 4.70366 50.6518 3.61566C51.3985 2.52766 52.5078 1.65299 53.9798 0.991655C55.4518 0.330322 57.2865 -0.00034523 59.4838 -0.00034523C60.9558 -0.00034523 62.3958 0.170322 63.8038 0.511656C65.2331 0.831656 66.5025 1.31166 67.6118 1.95165L65.6598 6.65565C64.5931 6.07965 63.5371 5.65299 62.4918 5.37566C61.4465 5.07699 60.4331 4.92766 59.4518 4.92766C58.5771 4.92766 57.8731 5.02366 57.3398 5.21566C56.8065 5.38632 56.4225 5.62099 56.1878 5.91965C55.9531 6.21832 55.8358 6.55966 55.8358 6.94366C55.8358 7.43432 56.0598 7.82899 56.5078 8.12766C56.9771 8.40499 57.5851 8.63966 58.3318 8.83166C59.0998 9.00232 59.9318 9.18366 60.8278 9.37566C61.7451 9.56766 62.6518 9.81299 63.5478 10.1117C64.4651 10.389 65.2971 10.773 66.0438 11.2637C66.7905 11.733 67.3878 12.3623 67.8358 13.1517C68.3051 13.9197 68.5398 14.8903 68.5398 16.0637C68.5398 17.365 68.1665 18.5703 67.4198 19.6797C66.6945 20.7677 65.5958 21.6423 64.1238 22.3037C62.6731 22.965 60.8385 23.2957 58.6198 23.2957ZM82.7626 23.2957C80.9706 23.2957 79.3172 23.0077 77.8026 22.4317C76.2879 21.8557 74.9652 21.045 73.8346 19.9997C72.7252 18.933 71.8612 17.6957 71.2426 16.2877C70.6239 14.8797 70.3146 13.333 70.3146 11.6477C70.3146 9.96232 70.6239 8.41566 71.2426 7.00766C71.8612 5.59965 72.7252 4.37299 73.8346 3.32766C74.9652 2.26099 76.2879 1.43966 77.8026 0.863655C79.3172 0.287655 80.9706 -0.00034523 82.7626 -0.00034523C84.5759 -0.00034523 86.2292 0.287655 87.7226 0.863655C89.2372 1.43966 90.5492 2.26099 91.6586 3.32766C92.7679 4.37299 93.6319 5.59965 94.2506 7.00766C94.8906 8.41566 95.2106 9.96232 95.2106 11.6477C95.2106 13.333 94.8906 14.8903 94.2506 16.3197C93.6319 17.7277 92.7679 18.9543 91.6586 19.9997C90.5492 21.045 89.2372 21.8557 87.7226 22.4317C86.2292 23.0077 84.5759 23.2957 82.7626 23.2957ZM82.7626 18.0477C83.6159 18.0477 84.4052 17.8983 85.1306 17.5997C85.8772 17.301 86.5172 16.8743 87.0506 16.3197C87.6052 15.7437 88.0319 15.061 88.3306 14.2717C88.6506 13.4823 88.8106 12.6077 88.8106 11.6477C88.8106 10.6663 88.6506 9.79166 88.3306 9.02366C88.0319 8.23432 87.6052 7.56232 87.0506 7.00766C86.5172 6.43166 85.8772 5.99432 85.1306 5.69566C84.4052 5.39699 83.6159 5.24766 82.7626 5.24766C81.9092 5.24766 81.1092 5.39699 80.3626 5.69566C79.6372 5.99432 78.9972 6.43166 78.4426 7.00766C77.9092 7.56232 77.4826 8.23432 77.1626 9.02366C76.8639 9.79166 76.7146 10.6663 76.7146 11.6477C76.7146 12.6077 76.8639 13.4823 77.1626 14.2717C77.4826 15.061 77.9092 15.7437 78.4426 16.3197C78.9972 16.8743 79.6372 17.301 80.3626 17.5997C81.1092 17.8983 81.9092 18.0477 82.7626 18.0477ZM98.5291 22.8477V0.447655H104.865V17.8237H115.553V22.8477H98.5291ZM123.884 9.11966H134.284V13.8557H123.884V9.11966ZM124.332 17.9517H136.044V22.8477H118.06V0.447655H135.628V5.34365H124.332V17.9517ZM139.56 22.8477V0.447655H144.776L157.128 15.3597H154.664V0.447655H160.872V22.8477H155.656L143.304 7.93566H145.768V22.8477H139.56Z" fill="#F8FAFC"/>
<path d="M175.381 22.8477V0.447655H184.245C186.613 0.447655 188.693 0.927655 190.485 1.88766C192.277 2.84766 193.663 4.17032 194.645 5.85566C195.647 7.54099 196.149 9.47166 196.149 11.6477C196.149 13.8237 195.647 15.7543 194.645 17.4397C193.663 19.125 192.277 20.4477 190.485 21.4077C188.693 22.3677 186.613 22.8477 184.245 22.8477H175.381ZM177.013 21.3757H184.117C186.229 21.3757 188.063 20.9597 189.621 20.1277C191.178 19.2957 192.383 18.1543 193.237 16.7037C194.09 15.2317 194.517 13.5463 194.517 11.6477C194.517 9.74899 194.09 8.07432 193.237 6.62366C192.383 5.15166 191.178 3.99966 189.621 3.16766C188.063 2.33566 186.229 1.91965 184.117 1.91965H177.013V21.3757ZM201.818 22.8477V0.447655H203.45V22.8477H201.818ZM220.824 23.0077C219.138 23.0077 217.581 22.7303 216.152 22.1757C214.722 21.5997 213.474 20.7997 212.408 19.7757C211.362 18.7517 210.552 17.557 209.976 16.1917C209.4 14.805 209.112 13.2903 209.112 11.6477C209.112 10.005 209.4 8.50099 209.976 7.13566C210.552 5.74899 211.373 4.54365 212.44 3.51966C213.506 2.49566 214.744 1.70632 216.152 1.15166C217.581 0.575655 219.149 0.287655 220.856 0.287655C222.477 0.287655 223.981 0.543655 225.368 1.05565C226.754 1.56766 227.938 2.33566 228.92 3.35966L227.896 4.44765C226.914 3.48766 225.837 2.80499 224.664 2.39965C223.512 1.99432 222.253 1.79165 220.888 1.79165C219.437 1.79165 218.093 2.03699 216.856 2.52765C215.618 3.01832 214.541 3.71165 213.624 4.60765C212.706 5.50366 211.992 6.54899 211.48 7.74366C210.989 8.93832 210.744 10.2397 210.744 11.6477C210.744 13.0557 210.989 14.357 211.48 15.5517C211.992 16.7463 212.706 17.7917 213.624 18.6877C214.541 19.5837 215.618 20.277 216.856 20.7677C218.093 21.2583 219.437 21.5037 220.888 21.5037C222.21 21.5037 223.458 21.301 224.632 20.8957C225.826 20.4903 226.914 19.8183 227.896 18.8797L228.824 20.1277C227.821 21.0877 226.616 21.813 225.208 22.3037C223.821 22.773 222.36 23.0077 220.824 23.0077ZM227.256 19.9677V11.7437H228.824V20.1277L227.256 19.9677ZM236.006 22.8477V0.447655H237.638V22.8477H236.006ZM249.731 22.8477V1.91965H241.667V0.447655H259.427V1.91965H251.363V22.8477H249.731ZM258.605 22.8477L268.909 0.447655H270.541L280.845 22.8477H279.085L269.357 1.47165H270.061L260.365 22.8477H258.605ZM262.381 16.5437L262.925 15.1677H276.333L276.877 16.5437H262.381ZM284.912 22.8477V0.447655H286.544V21.3757H299.44V22.8477H284.912Z" fill="#8B5CF6"/>
</svg>
